<?xml version="1.0" encoding="UTF-8"?>
<svg width="20px" height="20px" viewBox="0 0 20 20" version="1.1" xmlns="http://www.w3.org/2000/svg" xmlns:xlink="http://www.w3.org/1999/xlink">
    <title>question-circle-fill</title>
    <g id="sprint#2" stroke="none" stroke-width="1" fill="none" fill-rule="evenodd">
        <g id="영상-클라우드-업로드-프로그래스" transform="translate(-295.000000, -251.000000)" fill="#8B8B8B" fill-rule="nonzero">
            <g id="question-circle-fill" transform="translate(295.000000, 251.000000)">
                <path d="M20,10 C20,15.5228475 15.5228475,20 10,20 C4.4771525,20 0,15.5228475 0,10 C0,4.4771525 4.4771525,1.77635684e-15 10,1.77635684e-15 C15.5228475,1.77635684e-15 20,4.4771525 20,10 Z M6.87,7.54125 L7.90125,7.54125 C8.07375,7.54125 8.21125,7.4 8.23375,7.22875 C8.34625,6.40875 8.90875,5.81125 9.91125,5.81125 C10.76875,5.81125 11.55375,6.24 11.55375,7.27125 C11.55375,8.065 11.08625,8.43 10.3475,8.985 C9.50625,9.59625 8.84,10.31 8.8875,11.46875 L8.89125,11.74 C8.89398048,11.9106332 9.03309493,12.0475 9.20375,12.0475 L10.2175,12.0475 C10.390089,12.0475 10.53,11.907589 10.53,11.735 L10.53,11.60375 C10.53,10.70625 10.87125,10.445 11.7925,9.74625 C12.55375,9.1675 13.3475,8.525 13.3475,7.17625 C13.3475,5.2875 11.7525,4.375 10.00625,4.375 C8.4225,4.375 6.6875,5.1125 6.56875,7.2325 C6.56529144,7.31408873 6.59566478,7.39348667 6.65269425,7.45193597 C6.70972373,7.51038527 6.7883509,7.54270153 6.87,7.54125 Z M9.77625,15.595 C10.53875,15.595 11.0625,15.1025 11.0625,14.43625 C11.0625,13.74625 10.5375,13.26125 9.77625,13.26125 C9.04625,13.26125 8.515,13.74625 8.515,14.43625 C8.515,15.1025 9.04625,15.595 9.7775,15.595 L9.77625,15.595 Z" id="Shape"></path>
            </g>
        </g>
    </g>
</svg>